<svg t="1741743186092" class="icon" viewBox="0 0 1024 1024" version="1.1" xmlns="http://www.w3.org/2000/svg" p-id="13707" width="200" height="200"><path d="M512 384c70.4 0 128 57.6 128 128s-57.6 128-128 128-128-57.6-128-128 57.6-128 128-128m0-85.333333c-117.76 0-213.333333 95.573333-213.333333 213.333333s95.573333 213.333333 213.333333 213.333333 213.333333-95.573333 213.333333-213.333333-95.573333-213.333333-213.333333-213.333333zM85.333333 554.666667h85.333334c23.466667 0 42.666667-19.2 42.666666-42.666667s-19.2-42.666667-42.666666-42.666667H85.333333c-23.466667 0-42.666667 19.2-42.666666 42.666667s19.2 42.666667 42.666666 42.666667z m768 0h85.333334c23.466667 0 42.666667-19.2 42.666666-42.666667s-19.2-42.666667-42.666666-42.666667h-85.333334c-23.466667 0-42.666667 19.2-42.666666 42.666667s19.2 42.666667 42.666666 42.666667zM469.333333 85.333333v85.333334c0 23.466667 19.2 42.666667 42.666667 42.666666s42.666667-19.2 42.666667-42.666666V85.333333c0-23.466667-19.2-42.666667-42.666667-42.666666s-42.666667 19.2-42.666667 42.666666z m0 768v85.333334c0 23.466667 19.2 42.666667 42.666667 42.666666s42.666667-19.2 42.666667-42.666666v-85.333334c0-23.466667-19.2-42.666667-42.666667-42.666666s-42.666667 19.2-42.666667 42.666666zM255.573333 195.413333a42.496 42.496 0 0 0-60.16 0 42.496 42.496 0 0 0 0 60.16l45.226667 45.226667c16.64 16.64 43.946667 16.64 60.16 0s16.64-43.946667 0-60.16L255.573333 195.413333z m527.786667 527.786667a42.496 42.496 0 0 0-60.16 0 42.496 42.496 0 0 0 0 60.16l45.226667 45.226667c16.64 16.64 43.946667 16.64 60.16 0a42.496 42.496 0 0 0 0-60.16l-45.226667-45.226667z m45.226667-467.626667a42.496 42.496 0 0 0 0-60.16 42.496 42.496 0 0 0-60.16 0l-45.226667 45.226667c-16.64 16.64-16.64 43.946667 0 60.16s43.946667 16.64 60.16 0l45.226667-45.226667zM300.8 783.36a42.496 42.496 0 0 0 0-60.16 42.496 42.496 0 0 0-60.16 0l-45.226667 45.226667c-16.64 16.64-16.64 43.946667 0 60.16s43.946667 16.64 60.16 0l45.226667-45.226667z" p-id="13708"></path></svg>